<svg width="125" height="57" viewBox="0 0 125 57" fill="none" xmlns="http://www.w3.org/2000/svg">
<path d="M6.47597 35.245C5.67585 35.245 4.8924 35.1535 4.12562 34.9704C3.35884 34.7873 2.66707 34.496 2.05031 34.0966C1.43355 33.6804 0.933474 33.1478 0.550083 32.4987C0.183361 31.8496 0 31.0673 0 30.1518H3.50053C3.50053 30.2517 3.53386 30.4098 3.60054 30.6262C3.68389 30.826 3.83391 31.0423 4.05061 31.2754C4.28397 31.5084 4.60903 31.7081 5.02575 31.8745C5.45916 32.0243 6.03424 32.0992 6.75101 32.0992C7.06772 32.0992 7.39278 32.0742 7.72616 32.0243C8.05954 31.9744 8.34292 31.8745 8.57628 31.7248C8.80966 31.5583 8.92638 31.3086 8.92638 30.9758C8.92638 30.6262 8.75966 30.3516 8.42627 30.1518C8.10955 29.9522 7.68448 29.794 7.15108 29.6775C6.63433 29.5443 6.05924 29.4112 5.42581 29.278C4.80905 29.1449 4.19229 28.9785 3.57553 28.7787C2.95878 28.579 2.39203 28.3127 1.87528 27.9798C1.37521 27.6303 0.983483 27.1892 0.700105 26.6566C0.433398 26.1073 0.325049 25.4249 0.375056 24.6093C0.458402 23.3777 1.04182 22.4207 2.12532 21.7383C3.20881 21.0392 4.71737 20.6897 6.651 20.6897C7.68448 20.6897 8.65129 20.8728 9.55147 21.2389C10.4683 21.6051 11.21 22.1627 11.7767 22.9116C12.3602 23.6606 12.6519 24.6093 12.6519 25.7578H9.27638C9.27638 25.2418 9.10138 24.8591 8.75129 24.6093C8.41793 24.343 8.00953 24.1683 7.52613 24.0851C7.0594 24.0018 6.63433 23.9603 6.25094 23.9603C5.63418 23.9603 5.11743 24.0351 4.70071 24.1849C4.30065 24.3348 4.10061 24.626 4.10061 25.0587C4.10061 25.4416 4.26731 25.7411 4.60069 25.9575C4.93408 26.1573 5.36747 26.3237 5.90089 26.4568C6.4343 26.5734 7.01772 26.6982 7.65115 26.8314C8.30125 26.9479 8.94302 27.0977 9.57647 27.2808C10.2098 27.4638 10.7766 27.7218 11.2767 28.0547C11.7934 28.371 12.1935 28.7954 12.4769 29.3279C12.7769 29.8606 12.8936 30.543 12.8269 31.3752C12.7436 32.5903 12.1268 33.539 10.9766 34.2214C9.8431 34.9038 8.34292 35.245 6.47597 35.245Z" fill="#B4B4B4"/>
<path d="M24.8533 35.245C23.5198 35.245 22.3029 34.9786 21.2027 34.446C20.1026 33.9135 19.2275 33.1145 18.5774 32.0493C17.9273 30.9841 17.6106 29.6609 17.6272 28.0797C17.6438 26.5317 17.9689 25.2085 18.6024 24.11C19.2525 22.9948 20.1276 22.146 21.2277 21.5635C22.3279 20.981 23.5614 20.6897 24.9283 20.6897C26.3452 20.6897 27.537 20.9477 28.5038 21.4636C29.4707 21.9629 30.2207 22.6287 30.7542 23.461C31.3043 24.2765 31.6544 25.1586 31.8044 26.1073H28.2038C28.1205 25.4748 27.8788 25.0088 27.4787 24.7092C27.0953 24.4097 26.6619 24.2182 26.1785 24.135C25.7118 24.0352 25.2951 23.9852 24.9283 23.9852C23.6282 23.9852 22.6613 24.3264 22.0279 25.0088C21.3945 25.6746 21.0777 26.6066 21.0777 27.805C21.0777 29.1199 21.3861 30.1435 22.0029 30.8759C22.6196 31.6082 23.5864 31.9744 24.9033 31.9744C25.2867 31.9744 25.7201 31.9245 26.2035 31.8246C26.6869 31.7081 27.1203 31.4834 27.5037 31.1505C27.9038 30.8176 28.1455 30.3183 28.2288 29.6525H31.8544C31.6876 30.6346 31.3293 31.5583 30.7792 32.4238C30.2291 33.2727 29.4623 33.955 28.4788 34.471C27.512 34.987 26.3035 35.245 24.8533 35.245Z" fill="#B4B4B4"/>
<path d="M43.2911 35.3448C40.9574 35.3448 39.1738 34.6874 37.9403 33.3725C36.7068 32.041 36.09 30.2517 36.09 28.0048C36.09 26.5235 36.3568 25.2418 36.8901 24.16C37.4236 23.0615 38.2236 22.2126 39.2905 21.6135C40.3574 20.9976 41.6909 20.6897 43.2911 20.6897C45.6248 20.6897 47.4 21.3554 48.6169 22.687C49.8337 24.0018 50.4422 25.7745 50.4422 28.0048C50.4422 29.4528 50.1671 30.7344 49.617 31.8496C49.0836 32.9481 48.2835 33.8053 47.2167 34.421C46.1665 35.0369 44.858 35.3448 43.2911 35.3448ZM43.2411 31.9744C44.0912 31.9744 44.7913 31.7997 45.3414 31.4501C45.9081 31.084 46.3249 30.6012 46.5916 30.0021C46.8749 29.3862 47.0167 28.7204 47.0167 28.0048C47.0167 27.2724 46.8749 26.5984 46.5916 25.9825C46.3249 25.3666 45.9081 24.8757 45.3414 24.5095C44.7913 24.1433 44.0912 23.9603 43.2411 23.9603C42.0243 23.9603 41.0908 24.343 40.4406 25.1087C39.8073 25.8743 39.4905 26.8397 39.4905 28.0048C39.4905 28.7038 39.6239 29.3613 39.8905 29.9771C40.174 30.5763 40.5907 31.059 41.1408 31.4252C41.6909 31.7913 42.391 31.9744 43.2411 31.9744Z" fill="#B4B4B4"/>
<path d="M59.222 34.9953H55.7215V20.9393H61.6724C63.2726 20.9393 64.5312 21.3554 65.448 22.1876C66.3814 23.0032 66.8481 24.2348 66.8481 25.8827C66.8481 27.2808 66.373 28.3876 65.423 29.2031C64.4728 30.0021 63.2226 30.4015 61.6724 30.4015H59.222V34.9953ZM61.1473 23.7355H59.222V27.9548H61.1473C61.8474 27.9548 62.4474 27.7801 62.9475 27.4305C63.4476 27.0644 63.6977 26.5317 63.6977 25.8327C63.6977 25.117 63.4476 24.5927 62.9475 24.2598C62.4642 23.9102 61.8641 23.7355 61.1473 23.7355Z" fill="#B4B4B4"/>
<path d="M72.1575 34.9952V20.9393H77.8833C79.717 20.9393 81.1671 21.2639 82.234 21.913C83.3008 22.5621 83.8342 23.6523 83.8342 25.1835C83.8342 26.4485 83.5508 27.4305 82.9841 28.1296C82.434 28.8286 81.6839 29.1782 80.7338 29.1782C81.2005 29.1782 81.5506 29.2864 81.7839 29.5027C82.0339 29.7025 82.209 29.9688 82.309 30.3016C82.4257 30.6179 82.5174 30.9424 82.584 31.2753C82.6508 31.6082 82.7424 31.9078 82.8591 32.1741C82.9758 32.4238 83.1591 32.5902 83.4092 32.6734C83.6758 32.74 84.0509 32.6734 84.5344 32.4737V34.3711C84.0676 34.7706 83.5508 35.0286 82.9841 35.1451C82.4174 35.2783 81.8756 35.245 81.3589 35.0452C80.8588 34.8621 80.442 34.5043 80.1087 33.9717C79.7753 33.4224 79.6086 32.6817 79.6086 31.7496C79.6086 31.3502 79.5752 30.9924 79.5086 30.6761C79.4586 30.3433 79.3086 30.0686 79.0585 29.8522C78.8085 29.6359 78.4168 29.4944 77.8833 29.4278C77.3499 29.3446 76.6082 29.3446 75.658 29.4278V34.9952H72.1575ZM75.658 26.9811H77.4083C78.1751 26.9811 78.8002 26.9728 79.2835 26.9562C79.767 26.9396 80.1253 26.8314 80.3587 26.6316C80.6088 26.4152 80.7338 26.0324 80.7338 25.4832C80.7338 24.8673 80.5838 24.4429 80.2837 24.2099C80.0003 23.9602 79.5752 23.8188 79.0085 23.7854C78.4584 23.7521 77.775 23.7355 76.9582 23.7355H75.658V26.9811Z" fill="#B4B4B4"/>
<path d="M96.3646 35.3448C94.2638 35.3448 92.6724 34.7956 91.5888 33.6971C90.5215 32.5819 89.9879 31.0173 89.9879 29.0034V20.9393H93.7388V28.9784C93.7388 29.6775 93.8302 30.2351 94.0138 30.6512C94.1974 31.0506 94.4224 31.3503 94.6888 31.55C94.9724 31.7496 95.2638 31.8828 95.5638 31.9494C95.8638 31.9993 96.131 32.0243 96.3646 32.0243C96.7474 32.0243 97.1396 31.966 97.5396 31.8496C97.956 31.733 98.306 31.4584 98.5896 31.0257C98.8733 30.5929 99.0146 29.9105 99.0146 28.9784V20.9393H102.766V29.0034C102.766 31.0506 102.232 32.6235 101.165 33.722C100.115 34.8039 98.5146 35.3448 96.3646 35.3448Z" fill="#B4B4B4"/>
<path d="M108.722 34.9953V20.9393H114.798L116.874 33.5472H116.924L118.949 20.9393H125V34.9953H121.374L121.624 22.4123H121.599L119.399 34.9953H114.323L112.173 22.4123H112.123L112.348 34.9953H108.722Z" fill="#B4B4B4"/>
</svg>
