<svg width="125" height="45" viewBox="0 0 125 45" fill="none" xmlns="http://www.w3.org/2000/svg">
<g clip-path="url(#clip0_2_16)">
<path d="M51.6544 23.9855L50.4559 24.1409C50.4412 24.7623 50.4263 25.3837 50.4116 26.0052C50.4116 26.6118 50.4116 27.2333 50.4116 27.8694V28.8238C49.6274 29.2529 48.8506 29.571 48.0811 29.7782C47.3118 30.0001 46.4832 30.1111 45.5954 30.1111C44.4265 30.1111 43.3686 29.9187 42.4217 29.534C41.4747 29.1493 40.6609 28.624 39.9803 27.9582C39.3145 27.2776 38.7967 26.4786 38.4267 25.5613C38.0716 24.6291 37.894 23.6156 37.894 22.5207C37.894 21.4258 38.079 20.4122 38.4489 19.4801C38.8188 18.5479 39.344 17.749 40.0247 17.0831C40.7201 16.4025 41.5561 15.8699 42.5326 15.4852C43.5092 15.1004 44.6041 14.9081 45.8173 14.9081C46.5276 14.9081 47.2378 14.9895 47.948 15.1522C48.6582 15.3002 49.4054 15.5666 50.1896 15.9512L50.2784 19.1028H48.5028L48.1033 16.6392C47.4079 16.2989 46.6978 16.1288 45.9727 16.1288C44.5375 16.1288 43.3982 16.6837 42.5548 17.7933C41.7114 18.903 41.2898 20.4789 41.2898 22.5207C41.2898 23.5268 41.4081 24.4294 41.6449 25.2284C41.8964 26.0126 42.2293 26.6784 42.6436 27.2258C43.0727 27.7733 43.5758 28.1876 44.1528 28.4687C44.7298 28.7498 45.3587 28.8904 46.0393 28.8904C46.4684 28.8904 46.8605 28.8386 47.2156 28.735V27.8694C47.2156 27.248 47.2082 26.634 47.1934 26.0273C47.1934 25.4207 47.186 24.8067 47.1712 24.1852L45.5289 23.9855V22.8758H51.6544V23.9855Z" fill="#B4B4B4"/>
<path d="M64.8169 28.8016V29.7782L60.7332 30.0001L60.5779 28.158C60.0156 28.7942 59.4312 29.2825 58.8245 29.6228C58.2179 29.9483 57.5595 30.1111 56.8492 30.1111C56.3757 30.1111 55.9467 30.0371 55.562 29.8891C55.1921 29.756 54.8666 29.534 54.5854 29.2233C54.3191 28.8978 54.112 28.4835 53.964 27.9804C53.8161 27.4773 53.7495 26.8559 53.7643 26.1161L53.8531 20.4566L52.6323 20.2347V19.3469L56.6273 18.9474L56.8937 19.125L56.7827 22.2765V25.6944C56.7827 26.6709 56.9084 27.3516 57.1599 27.7363C57.4115 28.1062 57.737 28.2911 58.1365 28.2911C58.5212 28.2911 58.9133 28.1654 59.3128 27.9138C59.7271 27.6623 60.1266 27.3516 60.5112 26.9817L60.6001 20.4566L59.3794 20.2347V19.3913L63.3299 18.9474L63.5963 19.125L63.5297 22.2765V28.5353L64.8169 28.8016Z" fill="#B4B4B4"/>
<path d="M72.353 24.052C72.0721 24.126 71.8056 24.2074 71.5542 24.2962C71.3173 24.3702 71.1106 24.4441 70.9327 24.5181C70.2816 24.7696 69.8303 25.0878 69.579 25.4724C69.3276 25.8572 69.2019 26.2862 69.2019 26.7597C69.2019 27.0556 69.2383 27.2924 69.3125 27.47C69.4011 27.6475 69.5048 27.7955 69.6236 27.9138C69.9341 28.2246 70.3482 28.3799 70.8661 28.3799C71.103 28.3799 71.3324 28.3429 71.5542 28.2689C71.7761 28.1801 72.0426 28.0248 72.353 27.8029V24.052ZM77.2802 28.3799C76.9842 28.9865 76.6442 29.4082 76.2596 29.645C75.8894 29.8817 75.4231 30.0001 74.8613 30.0001C74.2548 30.0001 73.7514 29.8817 73.3516 29.645C72.9526 29.4082 72.671 29.0975 72.5089 28.7128C72.0055 29.1715 71.5172 29.5192 71.0439 29.756C70.5852 29.9926 70.0082 30.111 69.3125 30.111C68.4249 30.111 67.6999 29.8891 67.1376 29.4452C66.5902 28.9865 66.3164 28.3207 66.3164 27.4477C66.3164 27.1074 66.3682 26.7745 66.4718 26.449C66.5902 26.1087 66.7973 25.7832 67.0932 25.4724C67.4039 25.147 67.8256 24.8362 68.3583 24.5403C68.8908 24.2444 69.579 23.9559 70.4224 23.6748C70.6738 23.586 70.9698 23.4972 71.3104 23.4084C71.6504 23.3049 71.9979 23.2013 72.353 23.0977V22.4319C72.353 21.4997 72.2129 20.8339 71.9313 20.4344C71.6504 20.0349 71.1545 19.8351 70.4444 19.8351C70.3262 19.8351 70.2081 19.8426 70.0893 19.8573C69.9856 19.8573 69.875 19.8648 69.7562 19.8796L69.579 21.1668C69.5048 21.7439 69.3276 22.1729 69.046 22.4541C68.7651 22.7352 68.4323 22.8757 68.0476 22.8757C67.7073 22.8757 67.4113 22.7722 67.1598 22.565C66.9231 22.3579 66.7677 22.0842 66.6937 21.7439C66.7973 20.8709 67.2634 20.1533 68.092 19.5911C68.9203 19.014 70.0453 18.7255 71.4656 18.7255C72.1607 18.7255 72.7527 18.8069 73.2411 18.9696C73.7438 19.1176 74.1511 19.3691 74.4615 19.7242C74.7727 20.0645 75.002 20.5232 75.1497 21.1003C75.2974 21.6625 75.3716 22.3579 75.3716 23.1865V27.7584C75.3716 27.9952 75.4162 28.1876 75.5048 28.3355C75.5934 28.4835 75.7342 28.5575 75.9265 28.5575C76.0742 28.5575 76.193 28.513 76.2816 28.4243C76.3702 28.3355 76.4739 28.2246 76.592 28.0914L76.7033 27.9582L77.2802 28.3799Z" fill="#B4B4B4"/>
<path d="M82.4114 21.1224C82.8255 20.3678 83.2987 19.7834 83.8317 19.3691C84.364 18.94 84.8894 18.7255 85.4072 18.7255C85.7184 18.7255 86.0364 18.8216 86.3619 19.014C86.7019 19.2063 86.9313 19.5689 87.0494 20.1015C87.0494 20.5897 86.9093 20.9893 86.6277 21.3C86.3468 21.5959 85.9697 21.7439 85.4958 21.7439C84.9189 21.7439 84.3495 21.4406 83.787 20.8339L83.7431 20.7895C83.4766 21.0411 83.2245 21.3296 82.9883 21.6551C82.7664 21.9658 82.5741 22.3283 82.4114 22.7426V25.1174C82.4114 25.5908 82.4114 26.1309 82.4114 26.7376C82.4114 27.3441 82.4182 27.9212 82.4333 28.4687L84.1201 28.8016V29.7781H78.0164V28.8016L79.3708 28.5353C79.3853 27.9878 79.3928 27.4033 79.3928 26.7819C79.3928 26.1457 79.3928 25.5908 79.3928 25.1174V23.8301C79.3928 23.5194 79.3928 23.2531 79.3928 23.0311C79.3928 22.8092 79.3853 22.602 79.3708 22.4097C79.3708 22.2025 79.3633 22.0102 79.3482 21.8326C79.3482 21.6403 79.3406 21.4332 79.3262 21.2112L77.8392 21.0115V20.168L81.8564 18.7255L82.1888 18.9474L82.4114 21.1224Z" fill="#B4B4B4"/>
<path d="M95.206 21.1668C94.8956 20.9449 94.5845 20.7673 94.274 20.6342C93.978 20.501 93.6745 20.4344 93.364 20.4344C93.0385 20.4344 92.728 20.5158 92.432 20.6786C92.136 20.8414 91.8695 21.0854 91.6326 21.411C91.4107 21.7365 91.226 22.1508 91.0776 22.6539C90.9451 23.1421 90.8784 23.7266 90.8784 24.4072C90.8784 25.7536 91.1003 26.7523 91.544 27.4034C92.0027 28.0544 92.5653 28.38 93.2308 28.38C93.5563 28.38 93.8819 28.3133 94.2074 28.1802C94.5474 28.0322 94.8805 27.8473 95.206 27.6254V21.1668ZM99.5117 28.8016V29.7782L95.4725 30.0001L95.2946 28.6907C94.851 29.1493 94.3702 29.5044 93.8523 29.756C93.3345 29.9927 92.7349 30.1111 92.0543 30.1111C91.4334 30.1111 90.8489 29.9927 90.3008 29.756C89.7685 29.5192 89.3022 29.1641 88.9032 28.6907C88.5185 28.2172 88.215 27.6327 87.9931 26.9373C87.7713 26.2271 87.66 25.4059 87.66 24.4738C87.66 23.586 87.7782 22.787 88.0151 22.0768C88.2665 21.3666 88.6071 20.7673 89.0364 20.2791C89.465 19.776 89.9609 19.3913 90.5234 19.125C91.1003 18.8587 91.7218 18.7255 92.3874 18.7255C93.0089 18.7255 93.5563 18.8291 94.0295 19.0362C94.5034 19.2433 94.932 19.5393 95.3173 19.924V15.9068L93.5412 15.6849V14.7971L98.0027 13.7984L98.3132 13.976L98.2246 17.1275V28.5353L99.5117 28.8016Z" fill="#B4B4B4"/>
<path d="M106.837 24.052C106.556 24.126 106.289 24.2074 106.038 24.2962C105.801 24.3702 105.593 24.4441 105.416 24.5181C104.765 24.7696 104.314 25.0878 104.062 25.4724C103.81 25.8572 103.685 26.2862 103.685 26.7597C103.685 27.0556 103.722 27.2924 103.796 27.47C103.885 27.6475 103.988 27.7955 104.106 27.9138C104.418 28.2246 104.832 28.3799 105.35 28.3799C105.586 28.3799 105.815 28.3429 106.038 28.2689C106.26 28.1801 106.525 28.0248 106.837 27.8029V24.052ZM111.764 28.3799C111.468 28.9865 111.127 29.4082 110.742 29.645C110.373 29.8817 109.907 30.0001 109.344 30.0001C108.738 30.0001 108.235 29.8817 107.835 29.645C107.435 29.4082 107.155 29.0975 106.992 28.7128C106.489 29.1715 106.001 29.5192 105.527 29.756C105.068 29.9926 104.491 30.111 103.796 30.111C102.908 30.111 102.183 29.8891 101.621 29.4452C101.073 28.9865 100.799 28.3207 100.799 27.4477C100.799 27.1074 100.852 26.7745 100.955 26.449C101.073 26.1087 101.28 25.7832 101.576 25.4724C101.887 25.147 102.309 24.8362 102.841 24.5403C103.374 24.2444 104.062 23.9559 104.905 23.6748C105.157 23.586 105.453 23.4972 105.793 23.4084C106.134 23.3049 106.481 23.2013 106.837 23.0977V22.4319C106.837 21.4997 106.696 20.8339 106.415 20.4344C106.134 20.0349 105.638 19.8351 104.928 19.8351C104.809 19.8351 104.691 19.8426 104.573 19.8573C104.469 19.8573 104.358 19.8648 104.24 19.8796L104.062 21.1668C103.988 21.7439 103.81 22.1729 103.53 22.4541C103.249 22.7352 102.916 22.8757 102.531 22.8757C102.19 22.8757 101.894 22.7722 101.643 22.565C101.407 22.3579 101.251 22.0842 101.177 21.7439C101.28 20.8709 101.747 20.1533 102.575 19.5911C103.404 19.014 104.528 18.7255 105.948 18.7255C106.644 18.7255 107.236 18.8069 107.724 18.9696C108.227 19.1176 108.634 19.3691 108.945 19.7242C109.255 20.0645 109.485 20.5232 109.633 21.1003C109.781 21.6625 109.855 22.3579 109.855 23.1865V27.7584C109.855 27.9952 109.899 28.1876 109.988 28.3355C110.077 28.4835 110.217 28.5575 110.41 28.5575C110.558 28.5575 110.676 28.513 110.765 28.4243C110.854 28.3355 110.957 28.2246 111.076 28.0914L111.187 27.9582L111.764 28.3799Z" fill="#B4B4B4"/>
<path d="M125.017 28.8016V29.7781H119.336V28.8016L120.69 28.5353C120.705 27.9878 120.712 27.4033 120.712 26.7819C120.712 26.1605 120.712 25.6056 120.712 25.1174V22.9867C120.712 22.1433 120.623 21.5293 120.446 21.1446C120.268 20.7451 119.92 20.5454 119.403 20.5454C118.973 20.5454 118.552 20.6637 118.137 20.9005C117.738 21.1224 117.324 21.4406 116.894 21.8549V25.1174C116.894 25.5908 116.894 26.1457 116.894 26.7819C116.894 27.4033 116.902 27.9878 116.917 28.5353L118.181 28.8016V29.7781H112.5V28.8016L113.854 28.5353C113.869 27.973 113.876 27.3812 113.876 26.7597C113.876 26.1383 113.876 25.5908 113.876 25.1174V23.8523C113.876 23.5416 113.876 23.2753 113.876 23.0533C113.876 22.8166 113.869 22.602 113.854 22.4097C113.854 22.2025 113.846 22.0102 113.832 21.8326C113.832 21.6403 113.824 21.4332 113.809 21.2112L112.322 21.0115V20.168L116.339 18.7255L116.672 18.9474L116.828 20.7007C117.139 20.3457 117.427 20.0497 117.694 19.813C117.975 19.5615 118.256 19.3543 118.536 19.1915C118.818 19.0288 119.106 18.9104 119.403 18.8365C119.713 18.7625 120.06 18.7255 120.446 18.7255C121.511 18.7255 122.324 19.0436 122.887 19.6798C123.449 20.3012 123.73 21.2852 123.73 22.6316V25.1174C123.73 25.6056 123.73 26.1679 123.73 26.8041C123.73 27.4255 123.738 28.0026 123.752 28.5353L125.017 28.8016Z" fill="#B4B4B4"/>
<path d="M3.00694 6.86813C1.34626 6.86813 0 8.21436 0 9.87507V33.9306C0 35.329 0.954595 36.5045 2.2477 36.8409C2.73095 35.4919 3.93474 34.3617 5.85909 33.4502C4.89934 33.0445 4.20275 32.5139 3.76932 31.8586C3.36685 31.2032 3.16561 30.4854 3.16561 29.7053C3.16561 28.613 3.47521 27.5832 4.0944 26.6157C4.71359 25.6171 5.59593 24.6185 6.74144 23.6198C5.47209 22.9644 4.52783 22.0907 3.90864 20.9984C3.32041 19.9061 3.02629 18.689 3.02629 17.347C3.02629 16.2548 3.21205 15.2562 3.58356 14.3512C3.98604 13.4149 4.58975 12.6035 5.3947 11.917C6.19964 11.2304 7.20584 10.6999 8.41326 10.3253C9.65165 9.95089 11.0913 9.76367 12.7321 9.76367C14.4039 9.76367 15.8435 9.95089 17.051 10.3253C18.2894 10.6999 19.311 11.2304 20.1159 11.917L25.3172 9.66999L26.0602 10.1381V13.7426H21.6484C22.2057 14.7725 22.4843 15.974 22.4843 17.347C22.4843 18.4081 22.2831 19.3911 21.8806 20.2962C21.4782 21.2012 20.8745 21.997 20.0695 22.6836C19.2646 23.3389 18.2429 23.8694 17.0045 24.2751C15.7971 24.6497 14.3729 24.8369 12.7321 24.8369C11.1222 24.8369 9.71353 24.6497 8.50611 24.2751C8.13462 24.9305 7.94883 25.6483 7.94883 26.4285C7.94883 26.959 8.15007 27.3959 8.55254 27.7392C8.95501 28.0513 9.65165 28.2073 10.6423 28.2073H16.0758C17.8405 28.2073 19.3264 28.379 20.5339 28.7222C21.7413 29.0343 22.7166 29.5024 23.4595 30.1266C24.2336 30.7195 24.7753 31.4373 25.085 32.2799C25.4255 33.0913 25.5957 34.0119 25.5957 35.0418C25.5957 35.6975 25.5058 36.3295 25.326 36.9376H27.0625C28.7231 36.9376 30.0694 35.5913 30.0694 33.9306V9.87507C30.0694 8.21436 28.7231 6.86813 27.0625 6.86813H3.00694Z" fill="#B4B4B4"/>
<path d="M19.7084 36.9376C19.6232 36.4238 19.3876 35.9479 19.0014 35.5099C18.5061 34.9794 17.6237 34.7141 16.3543 34.7141H11.4782C9.7755 34.7141 8.36684 34.5736 7.25228 34.2928C7.00462 34.7297 6.81885 35.151 6.69501 35.5567C6.57637 35.9454 6.51456 36.4056 6.50958 36.9376H19.7084Z" fill="#B4B4B4"/>
<path d="M10.4102 13.4149C10.9365 12.4787 11.7259 12.0106 12.7786 12.0106C13.8002 12.0106 14.5742 12.4787 15.1005 13.4149C15.6578 14.3199 15.9364 15.5995 15.9364 17.2534C15.9364 18.9387 15.6578 20.265 15.1005 21.2324C14.5742 22.1687 13.7692 22.6368 12.6856 22.6368C11.6021 22.6368 10.8126 22.1687 10.3172 21.2324C9.85288 20.2962 9.62067 18.9855 9.62067 17.3003C9.62067 15.6151 9.88378 14.3199 10.4102 13.4149Z" fill="#B4B4B4"/>
</g>
<defs>
<clipPath id="clip0_2_16">
<rect width="125" height="45" fill="white"/>
</clipPath>
</defs>
</svg>
