<svg width="125" height="55" viewBox="0 0 125 55" fill="none" xmlns="http://www.w3.org/2000/svg">
<g clip-path="url(#clip0_2_36)">
<path d="M41.3704 21.6137H46.9369V44.8177H41.3704V21.6137Z" fill="#B4B4B4"/>
<path d="M58.7959 27.7118C61.5478 27.7118 63.6639 28.5248 65.1442 30.151C66.6244 31.7772 67.3645 34.0079 67.3645 36.8433C67.3645 37.281 67.3541 37.6146 67.3332 37.8439H55.5748C55.8459 38.8029 56.315 39.5431 56.9821 40.0643C57.6492 40.5646 58.4623 40.8148 59.4213 40.8148C60.151 40.8148 60.8494 40.6688 61.5166 40.377C62.2046 40.0851 62.83 39.6578 63.3929 39.0948L66.3012 42.0032C65.4256 42.983 64.3623 43.7335 63.1115 44.2548C61.8814 44.7551 60.4846 45.0053 58.921 45.0053C57.1072 45.0053 55.5227 44.6508 54.1676 43.942C52.8125 43.2332 51.7701 42.2325 51.0404 40.9399C50.3316 39.6473 49.9772 38.1463 49.9772 36.4367C49.9772 34.7063 50.342 33.1844 51.0717 31.8709C51.8013 30.5367 52.8333 29.5151 54.1676 28.8063C55.5019 28.0766 57.0447 27.7118 58.7959 27.7118ZM61.9544 34.8731C61.9544 33.8933 61.6625 33.1114 61.0787 32.5277C60.5158 31.9231 59.7653 31.6208 58.8272 31.6208C57.9516 31.6208 57.2114 31.9127 56.6068 32.4964C56.0231 33.0802 55.6374 33.8723 55.4497 34.8731H61.9544Z" fill="#B4B4B4"/>
<path d="M69.3224 27.8994L84.1458 27.9307V31.3081L76.0147 40.5646H84.4583V44.8177H69.041V41.4402L77.1717 32.1837H69.3224V27.8994Z" fill="#B4B4B4"/>
<path d="M103.962 27.8994V44.8176H98.3958V42.0657C97.2491 44.0254 95.4458 45.0261 92.9858 45.0678C91.1508 45.0678 89.6817 44.4841 88.5767 43.3166C87.4925 42.1282 86.95 40.5542 86.95 38.5945V27.8994H92.5166V36.9996C92.5166 37.9586 92.7567 38.7092 93.2358 39.2512C93.7358 39.7932 94.4033 40.0642 95.2375 40.0642C96.2175 40.0434 96.9883 39.689 97.5516 39.001C98.1141 38.2922 98.3958 37.3748 98.3958 36.2491V27.8994H103.962Z" fill="#B4B4B4"/>
<path d="M106.56 27.8994H112.939L115.66 32.6527L118.6 27.8994H124.697L119.35 36.1552L125.073 44.8177H118.663L115.66 39.6577L112.314 44.8177H106.184L111.938 36.1552L106.56 27.8994Z" fill="#B4B4B4"/>
<path fill-rule="evenodd" clip-rule="evenodd" d="M0.865704 8.33334H20.8452C32.138 9.20201 37.35 16.1514 37.35 24.8381V44.8176H27.7738C28.7311 44.471 29.559 44.0209 30.2577 43.4671C32.1037 42.0012 33.0266 39.8159 33.0266 36.9113C33.0266 35.3097 32.6127 33.9524 31.7847 32.8394C30.9567 31.7264 29.7691 30.9664 28.2217 30.5592C29.5927 30.0434 30.631 29.2426 31.3367 28.1567C32.0426 27.0708 32.3954 25.7611 32.3954 24.2273C32.3954 21.567 31.3978 19.5378 29.4026 18.1398C27.4209 16.7418 24.5231 16.0428 20.7091 16.0428H10.0611V42.5722C5.09822 40.1687 1.39142 35.6723 0.865738 28.3128C0.792802 27.2918 0.865704 8.33334 0.865704 8.33334ZM17.2072 40.1892V33.0837H22.2157C24.6724 33.0973 25.9007 34.3393 25.9007 36.8095C25.9007 37.8818 25.5547 38.7165 24.8624 39.3138C24.1702 39.8974 23.1794 40.1892 21.8899 40.1892H17.2072ZM20.9331 28.401H17.2072V21.5603H20.7091C22.3107 21.5603 23.4712 21.8385 24.1906 22.395C24.9099 22.9379 25.2697 23.8337 25.2697 25.0824C25.2697 26.1683 24.9371 26.9894 24.272 27.5459C23.6069 28.1024 22.4939 28.3874 20.9331 28.401Z" fill="#B4B4B4"/>
</g>
<defs>
<clipPath id="clip0_2_36">
<rect width="125" height="55" fill="white"/>
</clipPath>
</defs>
</svg>
